<svg width="36" height="27" viewBox="0 0 36 27" fill="none" xmlns="http://www.w3.org/2000/svg">
<path d="M11.9973 26.4723L0.446454 14.9214C-0.148818 14.3261 -0.148818 13.3617 0.446454 12.7664L3.53741 9.67546C4.13268 9.08019 5.09711 9.08019 5.69238 9.67546L17.2433 21.2263C17.8385 21.8216 17.8385 22.7861 17.2433 23.3813L14.1523 26.4723C13.557 27.0668 12.5926 27.0668 11.9973 26.4723Z" fill="#189779"/>
<path d="M8.90636 21.2264L29.6863 0.446454C30.2815 -0.148818 31.246 -0.148818 31.8412 0.446454L34.9322 3.53741C35.5275 4.13268 35.5275 5.09711 34.9322 5.69238L14.1523 26.4723C13.557 27.0676 12.5926 27.0676 11.9973 26.4723L8.90636 23.3813C8.31185 22.7861 8.31185 21.8216 8.90636 21.2264Z" fill="url(#paint0_linear_91_2417)"/>
<defs>
<linearGradient id="paint0_linear_91_2417" x1="33.3866" y1="1.99223" x2="10.4522" y2="24.9274" gradientUnits="userSpaceOnUse">
<stop stop-color="#2AC782"/>
<stop offset="1" stop-color="#21B876"/>
</linearGradient>
</defs>
</svg>
