<svg width="171" height="61" viewBox="0 0 171 61" fill="none" xmlns="http://www.w3.org/2000/svg">
<path d="M10.1667 26.1925V48H2.82125V20.4992H9.70915L10.1667 26.1925ZM9.14999 33.2838H7.11666C7.11666 31.369 7.34541 29.6068 7.80291 27.9971C8.27735 26.3704 8.9636 24.9641 9.86165 23.7779C10.7767 22.5749 11.9035 21.643 13.2421 20.9821C14.5807 20.3213 16.1311 19.9909 17.8933 19.9909C19.1133 19.9909 20.2316 20.1773 21.2483 20.55C22.265 20.9059 23.1376 21.4735 23.8662 22.253C24.6118 23.0154 25.1879 24.0152 25.5945 25.2521C26.0012 26.4721 26.2045 27.9378 26.2045 29.6492V48H18.8846V30.4625C18.8846 29.2086 18.7151 28.2428 18.3762 27.565C18.0373 26.8873 17.5544 26.4128 16.9275 26.1417C16.3175 25.8706 15.5804 25.735 14.7162 25.735C13.7673 25.735 12.9371 25.9299 12.2254 26.3196C11.5307 26.7093 10.9546 27.2516 10.4971 27.9463C10.0396 28.6241 9.70068 29.4204 9.4804 30.3354C9.26013 31.2504 9.14999 32.2332 9.14999 33.2838ZM25.5183 32.445L22.9004 32.7754C22.9004 30.9793 23.1207 29.3103 23.5612 27.7684C24.0187 26.2264 24.688 24.8709 25.5691 23.7017C26.4672 22.5325 27.577 21.626 28.8987 20.9821C30.2204 20.3213 31.7454 19.9909 33.4737 19.9909C34.7954 19.9909 35.9984 20.1857 37.0829 20.5755C38.1673 20.9482 39.0908 21.5498 39.8533 22.38C40.6327 23.1934 41.2258 24.2609 41.6324 25.5825C42.0561 26.9042 42.2679 28.5224 42.2679 30.4371V48H34.9225V30.4371C34.9225 29.1663 34.753 28.2004 34.4141 27.5396C34.0922 26.8618 33.6177 26.3959 32.9908 26.1417C32.3808 25.8706 31.6522 25.735 30.805 25.735C29.9238 25.735 29.1529 25.9129 28.492 26.2688C27.8312 26.6077 27.2805 27.0821 26.84 27.6921C26.3994 28.3021 26.069 29.0138 25.8487 29.8271C25.6284 30.6235 25.5183 31.4961 25.5183 32.445ZM55.6624 20.4992V48H48.317V20.4992H55.6624ZM47.8595 13.3317C47.8595 12.2642 48.2323 11.3831 48.9779 10.6884C49.7234 9.99366 50.7231 9.6463 51.977 9.6463C53.214 9.6463 54.2052 9.99366 54.9508 10.6884C55.7133 11.3831 56.0945 12.2642 56.0945 13.3317C56.0945 14.3992 55.7133 15.2803 54.9508 15.975C54.2052 16.6698 53.214 17.0171 51.977 17.0171C50.7231 17.0171 49.7234 16.6698 48.9779 15.975C48.2323 15.2803 47.8595 14.3992 47.8595 13.3317ZM78.7153 10.9934V48H71.1157V10.9934H78.7153ZM90.102 10.9934V16.9663H59.907V10.9934H90.102ZM104.971 41.7983V29.5475C104.971 28.6664 104.827 27.9124 104.539 27.2854C104.251 26.6416 103.802 26.1417 103.192 25.7859C102.598 25.43 101.828 25.2521 100.879 25.2521C100.065 25.2521 99.3621 25.3961 98.769 25.6842C98.176 25.9553 97.7185 26.3535 97.3965 26.8788C97.0746 27.3871 96.9136 27.9886 96.9136 28.6834H89.5936C89.5936 27.5142 89.8647 26.4043 90.407 25.3538C90.9492 24.3032 91.7371 23.3798 92.7707 22.5834C93.8043 21.77 95.0328 21.1346 96.4561 20.6771C97.8964 20.2196 99.5061 19.9909 101.285 19.9909C103.42 19.9909 105.318 20.3467 106.979 21.0584C108.639 21.77 109.944 22.8375 110.893 24.2609C111.859 25.6842 112.342 27.4634 112.342 29.5984V41.3663C112.342 42.8743 112.435 44.1113 112.621 45.0771C112.807 46.026 113.079 46.8563 113.434 47.5679V48H106.038C105.682 47.2544 105.411 46.3225 105.225 45.2042C105.055 44.0689 104.971 42.9336 104.971 41.7983ZM105.937 31.2504L105.987 35.3933H101.895C100.929 35.3933 100.091 35.5035 99.379 35.7238C98.6674 35.944 98.0828 36.2575 97.6253 36.6642C97.1678 37.0539 96.8289 37.5114 96.6086 38.0367C96.4053 38.562 96.3036 39.1381 96.3036 39.765C96.3036 40.392 96.4476 40.9596 96.7357 41.4679C97.0238 41.9593 97.4389 42.349 97.9811 42.6371C98.5233 42.9082 99.1588 43.0438 99.8874 43.0438C100.989 43.0438 101.946 42.8235 102.759 42.3829C103.573 41.9424 104.2 41.4001 104.64 40.7563C105.098 40.1124 105.335 39.5024 105.352 38.9263L107.284 42.0271C107.012 42.7218 106.64 43.442 106.165 44.1875C105.708 44.9331 105.123 45.6363 104.412 46.2971C103.7 46.941 102.844 47.4747 101.844 47.8983C100.845 48.305 99.6586 48.5083 98.2861 48.5083C96.5408 48.5083 94.9565 48.161 93.5332 47.4663C92.1268 46.7546 91.0085 45.7803 90.1782 44.5433C89.3649 43.2895 88.9582 41.8661 88.9582 40.2733C88.9582 38.8331 89.2293 37.5538 89.7715 36.4354C90.3138 35.3171 91.1102 34.3767 92.1607 33.6142C93.2282 32.8347 94.5583 32.2502 96.1511 31.8604C97.7439 31.4538 99.5908 31.2504 101.692 31.2504H105.937ZM132.853 40.4004C132.853 39.8751 132.7 39.4007 132.395 38.9771C132.09 38.5535 131.523 38.1638 130.692 37.8079C129.879 37.4352 128.701 37.0963 127.159 36.7913C125.77 36.4863 124.474 36.105 123.271 35.6475C122.085 35.1731 121.051 34.6054 120.17 33.9446C119.306 33.2838 118.628 32.5043 118.137 31.6063C117.645 30.6913 117.399 29.6492 117.399 28.48C117.399 27.3278 117.645 26.2434 118.137 25.2267C118.645 24.21 119.365 23.312 120.297 22.5325C121.246 21.7361 122.398 21.1177 123.754 20.6771C125.126 20.2196 126.668 19.9909 128.379 19.9909C130.769 19.9909 132.819 20.3721 134.53 21.1346C136.259 21.8971 137.58 22.9477 138.495 24.2863C139.427 25.6079 139.893 27.116 139.893 28.8104H132.573C132.573 28.0988 132.421 27.4634 132.116 26.9042C131.828 26.3281 131.37 25.8791 130.743 25.5571C130.133 25.2182 129.337 25.0488 128.354 25.0488C127.541 25.0488 126.837 25.1928 126.244 25.4809C125.651 25.752 125.194 26.1248 124.872 26.5992C124.567 27.0567 124.414 27.565 124.414 28.1242C124.414 28.5478 124.499 28.9291 124.669 29.2679C124.855 29.5899 125.152 29.8864 125.558 30.1575C125.965 30.4286 126.49 30.6828 127.134 30.92C127.795 31.1403 128.608 31.3436 129.574 31.53C131.556 31.9367 133.327 32.4704 134.886 33.1313C136.445 33.7752 137.682 34.6563 138.597 35.7746C139.512 36.876 139.969 38.3247 139.969 40.1208C139.969 41.3408 139.698 42.4592 139.156 43.4758C138.614 44.4925 137.834 45.3821 136.818 46.1446C135.801 46.8901 134.581 47.4747 133.158 47.8983C131.751 48.305 130.167 48.5083 128.405 48.5083C125.846 48.5083 123.677 48.0508 121.898 47.1358C120.136 46.2208 118.797 45.0601 117.882 43.6538C116.984 42.2304 116.535 40.7732 116.535 39.2821H123.474C123.508 40.2818 123.762 41.0867 124.237 41.6967C124.728 42.3067 125.346 42.7472 126.092 43.0183C126.854 43.2895 127.676 43.425 128.557 43.425C129.506 43.425 130.294 43.2979 130.921 43.0438C131.548 42.7726 132.022 42.4168 132.344 41.9763C132.683 41.5188 132.853 40.9935 132.853 40.4004ZM152.042 8.93463V48H144.722V8.93463H152.042ZM169.376 20.4992L157.431 34.1225L151.026 40.6038L148.357 35.3171L153.44 28.8613L160.582 20.4992H169.376ZM161.777 48L153.644 35.2917L158.701 30.8692L170.215 48H161.777Z" fill="#F9F9F9"/>
</svg>
