<svg width="118" height="42" viewBox="0 0 118 42" fill="none" xmlns="http://www.w3.org/2000/svg">
<path d="M7.03125 17.918V33H1.95117V13.9805H6.71484L7.03125 17.918ZM6.32812 22.8223H4.92188C4.92188 21.498 5.08008 20.2793 5.39648 19.166C5.72461 18.041 6.19922 17.0684 6.82031 16.248C7.45312 15.416 8.23242 14.7715 9.1582 14.3145C10.084 13.8574 11.1562 13.6289 12.375 13.6289C13.2188 13.6289 13.9922 13.7578 14.6953 14.0156C15.3984 14.2617 16.002 14.6543 16.5059 15.1934C17.0215 15.7207 17.4199 16.4121 17.7012 17.2676C17.9824 18.1113 18.123 19.125 18.123 20.3086V33H13.0605V20.8711C13.0605 20.0039 12.9434 19.3359 12.709 18.8672C12.4746 18.3984 12.1406 18.0703 11.707 17.8828C11.2852 17.6953 10.7754 17.6016 10.1777 17.6016C9.52148 17.6016 8.94727 17.7363 8.45508 18.0059C7.97461 18.2754 7.57617 18.6504 7.25977 19.1309C6.94336 19.5996 6.70898 20.1504 6.55664 20.7832C6.4043 21.416 6.32812 22.0957 6.32812 22.8223ZM17.6484 22.2422L15.8379 22.4707C15.8379 21.2285 15.9902 20.0742 16.2949 19.0078C16.6113 17.9414 17.0742 17.0039 17.6836 16.1953C18.3047 15.3867 19.0723 14.7598 19.9863 14.3145C20.9004 13.8574 21.9551 13.6289 23.1504 13.6289C24.0645 13.6289 24.8965 13.7637 25.6465 14.0332C26.3965 14.291 27.0352 14.707 27.5625 15.2812C28.1016 15.8438 28.5117 16.582 28.793 17.4961C29.0859 18.4102 29.2324 19.5293 29.2324 20.8535V33H24.1523V20.8535C24.1523 19.9746 24.0352 19.3066 23.8008 18.8496C23.5781 18.3809 23.25 18.0586 22.8164 17.8828C22.3945 17.6953 21.8906 17.6016 21.3047 17.6016C20.6953 17.6016 20.1621 17.7246 19.7051 17.9707C19.248 18.2051 18.8672 18.5332 18.5625 18.9551C18.2578 19.377 18.0293 19.8691 17.877 20.4316C17.7246 20.9824 17.6484 21.5859 17.6484 22.2422ZM38.4961 13.9805V33H33.416V13.9805H38.4961ZM33.0996 9.02344C33.0996 8.28516 33.3574 7.67578 33.873 7.19531C34.3887 6.71484 35.0801 6.47461 35.9473 6.47461C36.8027 6.47461 37.4883 6.71484 38.0039 7.19531C38.5312 7.67578 38.7949 8.28516 38.7949 9.02344C38.7949 9.76172 38.5312 10.3711 38.0039 10.8516C37.4883 11.332 36.8027 11.5723 35.9473 11.5723C35.0801 11.5723 34.3887 11.332 33.873 10.8516C33.3574 10.3711 33.0996 9.76172 33.0996 9.02344Z" fill="#189779"/>
<path d="M54.4395 7.40625V33H49.1836V7.40625H54.4395ZM62.3145 7.40625V11.5371H41.4316V7.40625H62.3145ZM72.5977 28.7109V20.2383C72.5977 19.6289 72.498 19.1074 72.2988 18.6738C72.0996 18.2285 71.7891 17.8828 71.3672 17.6367C70.957 17.3906 70.4238 17.2676 69.7676 17.2676C69.2051 17.2676 68.7188 17.3672 68.3086 17.5664C67.8984 17.7539 67.582 18.0293 67.3594 18.3926C67.1367 18.7441 67.0254 19.1602 67.0254 19.6406H61.9629C61.9629 18.832 62.1504 18.0645 62.5254 17.3379C62.9004 16.6113 63.4453 15.9727 64.1602 15.4219C64.875 14.8594 65.7246 14.4199 66.709 14.1035C67.7051 13.7871 68.8184 13.6289 70.0488 13.6289C71.5254 13.6289 72.8379 13.875 73.9863 14.3672C75.1348 14.8594 76.0371 15.5977 76.6934 16.582C77.3613 17.5664 77.6953 18.7969 77.6953 20.2734V28.4121C77.6953 29.4551 77.7598 30.3105 77.8887 30.9785C78.0176 31.6348 78.2051 32.209 78.4512 32.7012V33H73.3359C73.0898 32.4844 72.9023 31.8398 72.7734 31.0664C72.6562 30.2812 72.5977 29.4961 72.5977 28.7109ZM73.2656 21.416L73.3008 24.2812H70.4707C69.8027 24.2812 69.2227 24.3574 68.7305 24.5098C68.2383 24.6621 67.834 24.8789 67.5176 25.1602C67.2012 25.4297 66.9668 25.7461 66.8145 26.1094C66.6738 26.4727 66.6035 26.8711 66.6035 27.3047C66.6035 27.7383 66.7031 28.1309 66.9023 28.4824C67.1016 28.8223 67.3887 29.0918 67.7637 29.291C68.1387 29.4785 68.5781 29.5723 69.082 29.5723C69.8438 29.5723 70.5059 29.4199 71.0684 29.1152C71.6309 28.8105 72.0645 28.4355 72.3691 27.9902C72.6855 27.5449 72.8496 27.123 72.8613 26.7246L74.1973 28.8691C74.0098 29.3496 73.752 29.8477 73.4238 30.3633C73.1074 30.8789 72.7031 31.3652 72.2109 31.8223C71.7188 32.2676 71.127 32.6367 70.4355 32.9297C69.7441 33.2109 68.9238 33.3516 67.9746 33.3516C66.7676 33.3516 65.6719 33.1113 64.6875 32.6309C63.7148 32.1387 62.9414 31.4648 62.3672 30.6094C61.8047 29.7422 61.5234 28.7578 61.5234 27.6562C61.5234 26.6602 61.7109 25.7754 62.0859 25.002C62.4609 24.2285 63.0117 23.5781 63.7383 23.0508C64.4766 22.5117 65.3965 22.1074 66.498 21.8379C67.5996 21.5566 68.877 21.416 70.3301 21.416H73.2656ZM91.8809 27.7441C91.8809 27.3809 91.7754 27.0527 91.5645 26.7598C91.3535 26.4668 90.9609 26.1973 90.3867 25.9512C89.8242 25.6934 89.0098 25.459 87.9434 25.248C86.9824 25.0371 86.0859 24.7734 85.2539 24.457C84.4336 24.1289 83.7188 23.7363 83.1094 23.2793C82.5117 22.8223 82.043 22.2832 81.7031 21.6621C81.3633 21.0293 81.1934 20.3086 81.1934 19.5C81.1934 18.7031 81.3633 17.9531 81.7031 17.25C82.0547 16.5469 82.5527 15.9258 83.1973 15.3867C83.8535 14.8359 84.6504 14.4082 85.5879 14.1035C86.5371 13.7871 87.6035 13.6289 88.7871 13.6289C90.4395 13.6289 91.8574 13.8926 93.041 14.4199C94.2363 14.9473 95.1504 15.6738 95.7832 16.5996C96.4277 17.5137 96.75 18.5566 96.75 19.7285H91.6875C91.6875 19.2363 91.582 18.7969 91.3711 18.4102C91.1719 18.0117 90.8555 17.7012 90.4219 17.4785C90 17.2441 89.4492 17.127 88.7695 17.127C88.207 17.127 87.7207 17.2266 87.3105 17.4258C86.9004 17.6133 86.584 17.8711 86.3613 18.1992C86.1504 18.5156 86.0449 18.8672 86.0449 19.2539C86.0449 19.5469 86.1035 19.8105 86.2207 20.0449C86.3496 20.2676 86.5547 20.4727 86.8359 20.6602C87.1172 20.8477 87.4805 21.0234 87.9258 21.1875C88.3828 21.3398 88.9453 21.4805 89.6133 21.6094C90.9844 21.8906 92.209 22.2598 93.2871 22.7168C94.3652 23.1621 95.2207 23.7715 95.8535 24.5449C96.4863 25.3066 96.8027 26.3086 96.8027 27.5508C96.8027 28.3945 96.6152 29.168 96.2402 29.8711C95.8652 30.5742 95.3262 31.1895 94.623 31.7168C93.9199 32.2324 93.0762 32.6367 92.0918 32.9297C91.1191 33.2109 90.0234 33.3516 88.8047 33.3516C87.0352 33.3516 85.5352 33.0352 84.3047 32.4023C83.0859 31.7695 82.1602 30.9668 81.5273 29.9941C80.9062 29.0098 80.5957 28.002 80.5957 26.9707H85.3945C85.418 27.6621 85.5938 28.2188 85.9219 28.6406C86.2617 29.0625 86.6895 29.3672 87.2051 29.5547C87.7324 29.7422 88.3008 29.8359 88.9102 29.8359C89.5664 29.8359 90.1113 29.748 90.5449 29.5723C90.9785 29.3848 91.3066 29.1387 91.5293 28.834C91.7637 28.5176 91.8809 28.1543 91.8809 27.7441ZM105.152 5.98242V33H100.09V5.98242H105.152ZM117.141 13.9805L108.879 23.4023L104.449 27.8848L102.604 24.2285L106.119 19.7637L111.059 13.9805H117.141ZM111.885 33L106.26 24.2109L109.758 21.1523L117.721 33H111.885Z" fill="url(#paint0_linear_87_593)"/>
<circle cx="36" cy="9" r="3" fill="url(#paint1_linear_87_593)"/>
<defs>
<linearGradient id="paint0_linear_87_593" x1="59.0008" y1="9.83897e-08" x2="57.0633" y2="42.1657" gradientUnits="userSpaceOnUse">
<stop stop-color="#193B97"/>
<stop offset="1" stop-color="#4871E0"/>
</linearGradient>
<linearGradient id="paint1_linear_87_593" x1="36" y1="6" x2="35.2335" y2="11.9374" gradientUnits="userSpaceOnUse">
<stop stop-color="#193B97"/>
<stop offset="1" stop-color="#4871E0"/>
</linearGradient>
</defs>
</svg>
